REM MD5 bec3c3179c107e56fa25d0151c9caf2f
FILE "Swagman (Europe) (En,Fr,De) (Demo).bin" BINARY
  TRACK 01 MODE2/2352
    INDEX 01 00:00:00
  TRACK 02 AUDIO
    INDEX 00 01:09:41
    INDEX 01 01:11:41
  TRACK 03 AUDIO
    INDEX 00 04:40:35
    INDEX 01 04:42:35
  TRACK 04 AUDIO
    INDEX 00 08:21:47
    INDEX 01 08:23:47
  TRACK 05 AUDIO
    INDEX 00 08:39:29
    INDEX 01 08:41:29
REM LEADOUT 11:58:29
